<svg width="24" height="24" viewBox="0 0 24 24" fill="none" xmlns="http://www.w3.org/2000/svg">
<path fill-rule="evenodd" clip-rule="evenodd" d="M7.61792 6.15762H4.0001C3.08883 6.15762 2.3501 6.89635 2.3501 7.80762V21.9996C2.3501 22.9109 3.08883 23.6496 4.0001 23.6496H20.0001C20.9114 23.6496 21.6501 22.9109 21.6501 21.9996V7.80762C21.6501 6.89635 20.9114 6.15762 20.0001 6.15762H16.3823C16.1798 2.52299 14.2781 0.349608 12.0001 0.349609C9.72207 0.34961 7.8204 2.52299 7.61792 6.15762ZM8.91893 6.15762H15.0813C14.8887 2.91896 13.2584 1.64961 12.0001 1.64961C10.7418 1.64961 9.1115 2.91896 8.91893 6.15762ZM4.0001 7.45762C3.8068 7.45762 3.6501 7.61432 3.6501 7.80762V21.9996C3.6501 22.1929 3.8068 22.3496 4.0001 22.3496H20.0001C20.1934 22.3496 20.3501 22.1929 20.3501 21.9996V7.80762C20.3501 7.61432 20.1934 7.45762 20.0001 7.45762H4.0001Z" fill="black"/>
</svg>
