<svg width="24" height="24" viewBox="0 0 24 24" fill="none" xmlns="http://www.w3.org/2000/svg">
<path d="M19.3333 3.75H4.66667C4.42355 3.75 4.19039 3.84658 4.01849 4.01849C3.84658 4.19039 3.75 4.42355 3.75 4.66667V19.3333C3.75 19.5764 3.84658 19.8096 4.01849 19.9815C4.19039 20.1534 4.42355 20.25 4.66667 20.25H12.5637V13.87H10.4206V11.3721H12.5637V9.53875C12.5637 7.4075 13.8654 6.24608 15.7721 6.24608C16.4128 6.24425 17.0545 6.27725 17.6925 6.34417V8.5625H16.3771C15.3431 8.5625 15.1414 9.05567 15.1414 9.77708V11.3675H17.6137L17.2928 13.8654H15.1405V20.25H19.3333C19.5764 20.25 19.8096 20.1534 19.9815 19.9815C20.1534 19.8096 20.25 19.5764 20.25 19.3333V4.66667C20.25 4.42355 20.1534 4.19039 19.9815 4.01849C19.8096 3.84658 19.5764 3.75 19.3333 3.75V3.75Z" fill="#DA1F39"/>
</svg>
