<svg width="24" height="24" viewBox="0 0 24 24" fill="none" xmlns="http://www.w3.org/2000/svg">
<path d="M14.7472 11.9808C14.7472 13.5011 13.5148 14.7335 11.9944 14.7335C10.4741 14.7335 9.2417 13.5011 9.2417 11.9808C9.2417 10.4605 10.4741 9.22803 11.9944 9.22803C13.5148 9.22803 14.7472 10.4605 14.7472 11.9808Z" fill="#DA1F39"/>
<path fill-rule="evenodd" clip-rule="evenodd" d="M19.8172 6.58142C20.062 7.23113 20.192 7.91849 20.2012 8.61276C20.2523 9.48596 20.2526 9.77154 20.2544 11.9818L20.2544 12.0127C20.2544 14.2521 20.2425 14.5317 20.2031 15.4135C20.1893 16.1001 20.0601 16.7766 19.819 17.4183C19.6064 17.9661 19.282 18.4637 18.8664 18.8793C18.4509 19.2948 17.9533 19.6192 17.4054 19.8318C16.7641 20.0726 16.0865 20.2024 15.4016 20.2159C14.5262 20.2673 14.2392 20.2673 12.0007 20.2673C9.76224 20.2673 9.48265 20.2553 8.5999 20.2159C7.91366 20.1934 7.2363 20.0539 6.59699 19.8034C6.04888 19.5913 5.55105 19.2671 5.1353 18.8517C4.71956 18.4363 4.39504 17.9387 4.18249 17.3908C3.9414 16.7482 3.81215 16.0717 3.7984 15.386C3.74707 14.5097 3.74707 14.2237 3.74707 11.9852C3.74707 9.74667 3.75899 9.46709 3.7984 8.58434C3.81135 7.89969 3.94125 7.22229 4.18249 6.58142C4.39469 6.03331 4.71896 5.53552 5.13457 5.11992C5.55017 4.70431 6.04796 4.38004 6.59607 4.16784C7.23714 3.92718 7.91438 3.797 8.59899 3.78284C9.4744 3.73242 9.76132 3.73242 11.9998 3.73242C14.2383 3.73242 14.5179 3.74342 15.3997 3.78284C16.0847 3.7969 16.7622 3.92708 17.4036 4.16784C17.9516 4.38019 18.4493 4.70451 18.8649 5.1201C19.2805 5.53569 19.6048 6.03339 19.8172 6.58142ZM7.75657 11.9806C7.75657 14.3218 9.65315 16.2183 11.9943 16.2183C13.1182 16.2183 14.1961 15.7719 14.9909 14.9771C15.7856 14.1824 16.2321 13.1045 16.2321 11.9806C16.2321 10.8567 15.7856 9.77878 14.9909 8.98405C14.1961 8.18931 13.1182 7.74284 11.9943 7.74284C9.65315 7.74284 7.75657 9.63942 7.75657 11.9806ZM16.0224 8.49928C16.1424 8.5489 16.2709 8.57438 16.4007 8.57425C16.9462 8.57425 17.388 8.13242 17.388 7.58609C17.388 7.45638 17.3624 7.32794 17.3128 7.20811C17.2632 7.08827 17.1904 6.97939 17.0987 6.88767C17.007 6.79596 16.8981 6.7232 16.7783 6.67357C16.6584 6.62393 16.53 6.59838 16.4003 6.59838C16.2706 6.59838 16.1421 6.62393 16.0223 6.67357C15.9025 6.7232 15.7936 6.79596 15.7019 6.88767C15.6101 6.97939 15.5374 7.08827 15.4878 7.20811C15.4381 7.32794 15.4126 7.45638 15.4126 7.58609C15.4124 7.71589 15.4379 7.84444 15.4875 7.96439C15.5372 8.08433 15.6099 8.19331 15.7017 8.2851C15.7935 8.37688 15.9025 8.44966 16.0224 8.49928Z" fill="#DA1F39"/>
</svg>
