<svg width="24" height="24" viewBox="0 0 24 24" fill="none" xmlns="http://www.w3.org/2000/svg">
<path d="M3.35693 8.95471L11.7279 13.3084C11.8119 13.352 11.9052 13.3748 11.9998 13.3748C12.0944 13.3748 12.1877 13.352 12.2716 13.3084L20.6426 8.9555V16.518C20.6427 17.1702 20.3931 17.7978 19.9452 18.2719C19.4972 18.746 18.8849 19.0307 18.2336 19.0676L18.0891 19.0716H5.91051C5.25825 19.0716 4.63071 18.8221 4.15661 18.3741C3.68251 17.9262 3.39779 17.3138 3.36086 16.6626L3.35693 16.518V8.95471ZM5.91051 4.92871H18.0891C18.7413 4.92867 19.3689 5.17822 19.843 5.62617C20.3171 6.07412 20.6018 6.68651 20.6387 7.33771L20.6426 7.48228V7.62685L11.9998 12.1211L3.35693 7.62685V7.48228C3.35689 6.83003 3.60644 6.20249 4.05439 5.72839C4.50234 5.25429 5.11473 4.96957 5.76593 4.93264L5.91051 4.92871H18.0891H5.91051Z" fill="#DA1F39"/>
</svg>
