<svg width="24" height="24" viewBox="0 0 24 24" fill="none" xmlns="http://www.w3.org/2000/svg">
<path d="M11.9999 3.35938C7.22806 3.35938 3.35986 7.22758 3.35986 11.9994C3.35986 16.7712 7.22806 20.6394 11.9999 20.6394C16.7717 20.6394 20.6399 16.7712 20.6399 11.9994C20.6399 7.22758 16.7717 3.35938 11.9999 3.35938ZM12.5912 14.0469C12.0368 14.0046 11.8046 13.7301 11.3708 13.4673C11.1323 14.7192 10.8407 15.9198 9.97666 16.5471C9.70936 14.6535 10.3673 13.2333 10.6733 11.724C10.1522 10.8465 10.7354 9.08157 11.8352 9.51537C13.1879 10.0518 10.6634 12.7779 12.3581 13.119C14.1275 13.4736 14.8502 10.0482 13.7531 8.93577C12.1673 7.32748 9.13876 8.89888 9.51136 11.2011C9.60136 11.7636 10.1837 11.9346 9.74356 12.7113C8.72926 12.4863 8.42596 11.6862 8.46556 10.6197C8.52766 8.87368 10.0343 7.65057 11.5445 7.48227C13.4552 7.26987 15.248 8.18337 15.4964 9.98157C15.7745 12.0102 14.6333 14.2053 12.5912 14.0469Z" fill="#DA1F39"/>
</svg>
