<svg width="24" height="24" viewBox="0 0 24 24" fill="none" xmlns="http://www.w3.org/2000/svg">
<path d="M11.0399 19.1999C6.5205 19.1999 2.87988 15.5593 2.87988 11.0399C2.87988 6.5205 6.5205 2.87988 11.0399 2.87988C15.5593 2.87988 19.1999 6.5205 19.1999 11.0399C19.1999 15.5593 15.5593 19.1999 11.0399 19.1999ZM11.0399 4.13527C7.21096 4.13527 4.13527 7.21096 4.13527 11.0399C4.13527 14.8688 7.21096 17.9445 11.0399 17.9445C14.8688 17.9445 17.9445 14.8688 17.9445 11.0399C17.9445 7.21096 14.8688 4.13527 11.0399 4.13527Z" fill="black"/>
<path d="M16.7545 15.8398L22.0802 21.1659L21.1661 22.0801L15.8403 16.754L16.7545 15.8398Z" fill="black"/>
</svg>
