<svg width="24" height="24" viewBox="0 0 24 24" fill="none" xmlns="http://www.w3.org/2000/svg">
<path d="M20.601 7.91055C20.4907 7.51614 20.2804 7.15691 19.9905 6.86762C19.7006 6.57834 19.3409 6.36881 18.9463 6.25933C17.4649 5.8633 11.5095 5.8633 11.5095 5.8633C11.5095 5.8633 5.56551 5.8538 4.06867 6.25933C3.67466 6.36929 3.31567 6.57904 3.02642 6.8683C2.73716 7.15755 2.52741 7.51654 2.41745 7.91055C2.13613 9.42712 1.99758 10.9667 2.00361 12.5091C2.00086 14.0442 2.13939 15.5762 2.41745 17.0858C2.52777 17.48 2.73758 17.8392 3.02673 18.129C3.31589 18.4188 3.67468 18.6294 4.06867 18.7406C5.55008 19.1366 11.5095 19.1366 11.5095 19.1366C11.5095 19.1366 17.45 19.1366 18.9463 18.7406C19.3409 18.6299 19.7004 18.4195 19.9902 18.1297C20.28 17.8399 20.4904 17.4804 20.601 17.0858C20.8736 15.5771 21.0066 14.0428 20.9971 12.5091C21.0066 10.9654 20.8765 9.42877 20.601 7.91055V7.91055ZM9.60717 15.3514V9.65439L14.5644 12.5091L9.60717 15.3514Z" fill="#DA1F39"/>
</svg>
